<mxfile host="app.diagrams.net" agent="Mozilla/5.0 (Windows NT 10.0; Win64; x64) AppleWebKit/537.36 (KHTML, like Gecko) Chrome/140.0.0.0 Safari/537.36 Edg/140.0.0.0" version="28.2.5">
  <diagram name="Страница — 1" id="NtC6GAvOaHBf4Bl467-R">
    <mxGraphModel dx="1591" dy="1025" grid="1" gridSize="10" guides="1" tooltips="1" connect="1" arrows="1" fold="1" page="1" pageScale="1" pageWidth="827" pageHeight="1169" math="0" shadow="0">
      <root>
        <mxCell id="0" />
        <mxCell id="1" parent="0" />
        <mxCell id="egN8UamiefCpqBO0-EwI-3" style="edgeStyle=orthogonalEdgeStyle;rounded=0;orthogonalLoop=1;jettySize=auto;html=1;exitX=0.5;exitY=1;exitDx=0;exitDy=0;entryX=0.5;entryY=0;entryDx=0;entryDy=0;" edge="1" parent="1" source="egN8UamiefCpqBO0-EwI-1" target="egN8UamiefCpqBO0-EwI-2">
          <mxGeometry relative="1" as="geometry" />
        </mxCell>
        <mxCell id="egN8UamiefCpqBO0-EwI-1" value="Начало" style="ellipse;whiteSpace=wrap;html=1;" vertex="1" parent="1">
          <mxGeometry x="250" y="110" width="120" height="80" as="geometry" />
        </mxCell>
        <mxCell id="egN8UamiefCpqBO0-EwI-5" style="edgeStyle=orthogonalEdgeStyle;rounded=0;orthogonalLoop=1;jettySize=auto;html=1;exitX=0.5;exitY=1;exitDx=0;exitDy=0;entryX=0.5;entryY=0;entryDx=0;entryDy=0;" edge="1" parent="1" source="egN8UamiefCpqBO0-EwI-2" target="egN8UamiefCpqBO0-EwI-4">
          <mxGeometry relative="1" as="geometry" />
        </mxCell>
        <mxCell id="egN8UamiefCpqBO0-EwI-2" value="int pid = fork()" style="rounded=0;whiteSpace=wrap;html=1;" vertex="1" parent="1">
          <mxGeometry x="250" y="260" width="120" height="40" as="geometry" />
        </mxCell>
        <mxCell id="egN8UamiefCpqBO0-EwI-10" style="edgeStyle=orthogonalEdgeStyle;rounded=0;orthogonalLoop=1;jettySize=auto;html=1;exitX=1;exitY=0.5;exitDx=0;exitDy=0;" edge="1" parent="1" source="egN8UamiefCpqBO0-EwI-4" target="egN8UamiefCpqBO0-EwI-9">
          <mxGeometry relative="1" as="geometry">
            <Array as="points">
              <mxPoint x="390" y="370" />
            </Array>
          </mxGeometry>
        </mxCell>
        <mxCell id="egN8UamiefCpqBO0-EwI-21" value="НЕТ" style="edgeLabel;html=1;align=center;verticalAlign=middle;resizable=0;points=[];" vertex="1" connectable="0" parent="egN8UamiefCpqBO0-EwI-10">
          <mxGeometry x="-0.2123" y="-1" relative="1" as="geometry">
            <mxPoint x="-4" y="-28" as="offset" />
          </mxGeometry>
        </mxCell>
        <mxCell id="egN8UamiefCpqBO0-EwI-4" value="pid &amp;lt; 0" style="rhombus;whiteSpace=wrap;html=1;" vertex="1" parent="1">
          <mxGeometry x="235" y="340" width="150" height="60" as="geometry" />
        </mxCell>
        <mxCell id="egN8UamiefCpqBO0-EwI-18" style="edgeStyle=orthogonalEdgeStyle;rounded=0;orthogonalLoop=1;jettySize=auto;html=1;exitX=0.5;exitY=1;exitDx=0;exitDy=0;entryX=0.5;entryY=0;entryDx=0;entryDy=0;" edge="1" parent="1" source="egN8UamiefCpqBO0-EwI-6" target="egN8UamiefCpqBO0-EwI-17">
          <mxGeometry relative="1" as="geometry">
            <Array as="points">
              <mxPoint x="150" y="660" />
              <mxPoint x="310" y="660" />
            </Array>
          </mxGeometry>
        </mxCell>
        <mxCell id="egN8UamiefCpqBO0-EwI-6" value="perror()" style="rounded=0;whiteSpace=wrap;html=1;" vertex="1" parent="1">
          <mxGeometry x="90" y="420" width="120" height="50" as="geometry" />
        </mxCell>
        <mxCell id="egN8UamiefCpqBO0-EwI-7" style="edgeStyle=orthogonalEdgeStyle;rounded=0;orthogonalLoop=1;jettySize=auto;html=1;entryX=0.407;entryY=-0.027;entryDx=0;entryDy=0;entryPerimeter=0;" edge="1" parent="1" source="egN8UamiefCpqBO0-EwI-4" target="egN8UamiefCpqBO0-EwI-6">
          <mxGeometry relative="1" as="geometry" />
        </mxCell>
        <mxCell id="egN8UamiefCpqBO0-EwI-8" value="ДА" style="edgeLabel;html=1;align=center;verticalAlign=middle;resizable=0;points=[];" vertex="1" connectable="0" parent="egN8UamiefCpqBO0-EwI-7">
          <mxGeometry x="-0.4532" y="4" relative="1" as="geometry">
            <mxPoint x="-5" y="-14" as="offset" />
          </mxGeometry>
        </mxCell>
        <mxCell id="egN8UamiefCpqBO0-EwI-12" style="edgeStyle=orthogonalEdgeStyle;rounded=0;orthogonalLoop=1;jettySize=auto;html=1;exitX=0;exitY=0.5;exitDx=0;exitDy=0;entryX=0.5;entryY=0;entryDx=0;entryDy=0;" edge="1" parent="1" source="egN8UamiefCpqBO0-EwI-9" target="egN8UamiefCpqBO0-EwI-11">
          <mxGeometry relative="1" as="geometry" />
        </mxCell>
        <mxCell id="egN8UamiefCpqBO0-EwI-13" value="ДА" style="edgeLabel;html=1;align=center;verticalAlign=middle;resizable=0;points=[];" vertex="1" connectable="0" parent="egN8UamiefCpqBO0-EwI-12">
          <mxGeometry x="-0.4255" y="-4" relative="1" as="geometry">
            <mxPoint as="offset" />
          </mxGeometry>
        </mxCell>
        <mxCell id="egN8UamiefCpqBO0-EwI-15" style="edgeStyle=orthogonalEdgeStyle;rounded=0;orthogonalLoop=1;jettySize=auto;html=1;exitX=1;exitY=0.5;exitDx=0;exitDy=0;entryX=0.5;entryY=0;entryDx=0;entryDy=0;" edge="1" parent="1" source="egN8UamiefCpqBO0-EwI-9" target="egN8UamiefCpqBO0-EwI-14">
          <mxGeometry relative="1" as="geometry" />
        </mxCell>
        <mxCell id="egN8UamiefCpqBO0-EwI-9" value="pid == 0" style="rhombus;whiteSpace=wrap;html=1;" vertex="1" parent="1">
          <mxGeometry x="320" y="420" width="135" height="80" as="geometry" />
        </mxCell>
        <mxCell id="egN8UamiefCpqBO0-EwI-19" style="edgeStyle=orthogonalEdgeStyle;rounded=0;orthogonalLoop=1;jettySize=auto;html=1;exitX=0.5;exitY=1;exitDx=0;exitDy=0;entryX=0.5;entryY=0;entryDx=0;entryDy=0;" edge="1" parent="1" source="egN8UamiefCpqBO0-EwI-11" target="egN8UamiefCpqBO0-EwI-17">
          <mxGeometry relative="1" as="geometry">
            <Array as="points">
              <mxPoint x="250" y="610" />
              <mxPoint x="310" y="610" />
            </Array>
          </mxGeometry>
        </mxCell>
        <mxCell id="egN8UamiefCpqBO0-EwI-11" value="ChildProcess()" style="shape=process;whiteSpace=wrap;html=1;backgroundOutline=1;" vertex="1" parent="1">
          <mxGeometry x="190" y="520" width="120" height="40" as="geometry" />
        </mxCell>
        <mxCell id="egN8UamiefCpqBO0-EwI-20" style="edgeStyle=orthogonalEdgeStyle;rounded=0;orthogonalLoop=1;jettySize=auto;html=1;exitX=0.5;exitY=1;exitDx=0;exitDy=0;entryX=0.5;entryY=0;entryDx=0;entryDy=0;" edge="1" parent="1" source="egN8UamiefCpqBO0-EwI-14" target="egN8UamiefCpqBO0-EwI-17">
          <mxGeometry relative="1" as="geometry" />
        </mxCell>
        <mxCell id="egN8UamiefCpqBO0-EwI-14" value="ParentProcess()" style="shape=process;whiteSpace=wrap;html=1;backgroundOutline=1;" vertex="1" parent="1">
          <mxGeometry x="440" y="520" width="120" height="40" as="geometry" />
        </mxCell>
        <mxCell id="egN8UamiefCpqBO0-EwI-17" value="Конец" style="ellipse;whiteSpace=wrap;html=1;" vertex="1" parent="1">
          <mxGeometry x="250" y="760" width="120" height="80" as="geometry" />
        </mxCell>
        <mxCell id="egN8UamiefCpqBO0-EwI-22" value="НЕТ" style="text;html=1;align=center;verticalAlign=middle;resizable=0;points=[];autosize=1;strokeColor=none;fillColor=none;" vertex="1" parent="1">
          <mxGeometry x="450" y="440" width="50" height="30" as="geometry" />
        </mxCell>
        <mxCell id="egN8UamiefCpqBO0-EwI-27" style="edgeStyle=orthogonalEdgeStyle;rounded=0;orthogonalLoop=1;jettySize=auto;html=1;exitX=0.5;exitY=1;exitDx=0;exitDy=0;entryX=0.5;entryY=0;entryDx=0;entryDy=0;" edge="1" parent="1" source="egN8UamiefCpqBO0-EwI-24" target="egN8UamiefCpqBO0-EwI-26">
          <mxGeometry relative="1" as="geometry" />
        </mxCell>
        <mxCell id="egN8UamiefCpqBO0-EwI-24" value="ChildProcess()" style="rounded=1;whiteSpace=wrap;html=1;" vertex="1" parent="1">
          <mxGeometry x="580" y="520" width="120" height="40" as="geometry" />
        </mxCell>
        <mxCell id="egN8UamiefCpqBO0-EwI-29" style="edgeStyle=orthogonalEdgeStyle;rounded=0;orthogonalLoop=1;jettySize=auto;html=1;entryX=0.5;entryY=0;entryDx=0;entryDy=0;" edge="1" parent="1" source="egN8UamiefCpqBO0-EwI-25" target="egN8UamiefCpqBO0-EwI-28">
          <mxGeometry relative="1" as="geometry" />
        </mxCell>
        <mxCell id="egN8UamiefCpqBO0-EwI-25" value="ParentProcess()" style="rounded=1;whiteSpace=wrap;html=1;" vertex="1" parent="1">
          <mxGeometry x="880" y="520" width="120" height="40" as="geometry" />
        </mxCell>
        <mxCell id="egN8UamiefCpqBO0-EwI-31" style="edgeStyle=orthogonalEdgeStyle;rounded=0;orthogonalLoop=1;jettySize=auto;html=1;exitX=0.5;exitY=1;exitDx=0;exitDy=0;entryX=0.5;entryY=0;entryDx=0;entryDy=0;" edge="1" parent="1" source="egN8UamiefCpqBO0-EwI-26" target="egN8UamiefCpqBO0-EwI-30">
          <mxGeometry relative="1" as="geometry" />
        </mxCell>
        <mxCell id="egN8UamiefCpqBO0-EwI-26" value="int MAX_COUNT = 200;&lt;div&gt;int i = 0&lt;/div&gt;" style="rounded=0;whiteSpace=wrap;html=1;" vertex="1" parent="1">
          <mxGeometry x="560" y="590" width="160" height="60" as="geometry" />
        </mxCell>
        <mxCell id="egN8UamiefCpqBO0-EwI-33" style="edgeStyle=orthogonalEdgeStyle;rounded=0;orthogonalLoop=1;jettySize=auto;html=1;exitX=0.5;exitY=1;exitDx=0;exitDy=0;entryX=0.5;entryY=0;entryDx=0;entryDy=0;" edge="1" parent="1" source="egN8UamiefCpqBO0-EwI-28" target="egN8UamiefCpqBO0-EwI-32">
          <mxGeometry relative="1" as="geometry" />
        </mxCell>
        <mxCell id="egN8UamiefCpqBO0-EwI-28" value="int MAX_COUNT = 200;&lt;div&gt;int i = 0&lt;/div&gt;" style="rounded=0;whiteSpace=wrap;html=1;" vertex="1" parent="1">
          <mxGeometry x="860" y="590" width="160" height="60" as="geometry" />
        </mxCell>
        <mxCell id="egN8UamiefCpqBO0-EwI-37" style="edgeStyle=orthogonalEdgeStyle;rounded=0;orthogonalLoop=1;jettySize=auto;html=1;exitX=0.5;exitY=1;exitDx=0;exitDy=0;entryX=0.5;entryY=0;entryDx=0;entryDy=0;" edge="1" parent="1" source="egN8UamiefCpqBO0-EwI-30" target="egN8UamiefCpqBO0-EwI-36">
          <mxGeometry relative="1" as="geometry" />
        </mxCell>
        <mxCell id="egN8UamiefCpqBO0-EwI-51" style="edgeStyle=orthogonalEdgeStyle;rounded=0;orthogonalLoop=1;jettySize=auto;html=1;exitX=1;exitY=0.5;exitDx=0;exitDy=0;entryX=0.5;entryY=0;entryDx=0;entryDy=0;" edge="1" parent="1" source="egN8UamiefCpqBO0-EwI-30" target="egN8UamiefCpqBO0-EwI-49">
          <mxGeometry relative="1" as="geometry">
            <Array as="points">
              <mxPoint x="750" y="750" />
              <mxPoint x="750" y="960" />
              <mxPoint x="640" y="960" />
              <mxPoint x="640" y="1010" />
            </Array>
          </mxGeometry>
        </mxCell>
        <mxCell id="egN8UamiefCpqBO0-EwI-30" value="i &amp;lt; MAX_COUNT" style="rhombus;whiteSpace=wrap;html=1;" vertex="1" parent="1">
          <mxGeometry x="550" y="720" width="180" height="60" as="geometry" />
        </mxCell>
        <mxCell id="egN8UamiefCpqBO0-EwI-43" style="edgeStyle=orthogonalEdgeStyle;rounded=0;orthogonalLoop=1;jettySize=auto;html=1;exitX=0.5;exitY=1;exitDx=0;exitDy=0;entryX=0.5;entryY=0;entryDx=0;entryDy=0;" edge="1" parent="1" source="egN8UamiefCpqBO0-EwI-32" target="egN8UamiefCpqBO0-EwI-42">
          <mxGeometry relative="1" as="geometry" />
        </mxCell>
        <mxCell id="egN8UamiefCpqBO0-EwI-52" style="edgeStyle=orthogonalEdgeStyle;rounded=0;orthogonalLoop=1;jettySize=auto;html=1;exitX=1;exitY=0.5;exitDx=0;exitDy=0;entryX=0.5;entryY=0;entryDx=0;entryDy=0;" edge="1" parent="1" source="egN8UamiefCpqBO0-EwI-32" target="egN8UamiefCpqBO0-EwI-50">
          <mxGeometry relative="1" as="geometry">
            <Array as="points">
              <mxPoint x="1050" y="750" />
              <mxPoint x="1050" y="960" />
              <mxPoint x="940" y="960" />
            </Array>
          </mxGeometry>
        </mxCell>
        <mxCell id="egN8UamiefCpqBO0-EwI-32" value="i &amp;lt; MAX_COUNT" style="rhombus;whiteSpace=wrap;html=1;" vertex="1" parent="1">
          <mxGeometry x="850" y="720" width="180" height="60" as="geometry" />
        </mxCell>
        <mxCell id="egN8UamiefCpqBO0-EwI-47" style="edgeStyle=orthogonalEdgeStyle;rounded=0;orthogonalLoop=1;jettySize=auto;html=1;exitX=0.5;exitY=1;exitDx=0;exitDy=0;entryX=0;entryY=0.5;entryDx=0;entryDy=0;" edge="1" parent="1" source="egN8UamiefCpqBO0-EwI-34" target="egN8UamiefCpqBO0-EwI-30">
          <mxGeometry relative="1" as="geometry" />
        </mxCell>
        <mxCell id="egN8UamiefCpqBO0-EwI-34" value="i = i + 1" style="rounded=0;whiteSpace=wrap;html=1;" vertex="1" parent="1">
          <mxGeometry x="580" y="880" width="120" height="30" as="geometry" />
        </mxCell>
        <mxCell id="egN8UamiefCpqBO0-EwI-38" style="edgeStyle=orthogonalEdgeStyle;rounded=0;orthogonalLoop=1;jettySize=auto;html=1;exitX=0.5;exitY=1;exitDx=0;exitDy=0;entryX=0.5;entryY=0;entryDx=0;entryDy=0;" edge="1" parent="1" source="egN8UamiefCpqBO0-EwI-36" target="egN8UamiefCpqBO0-EwI-34">
          <mxGeometry relative="1" as="geometry" />
        </mxCell>
        <mxCell id="egN8UamiefCpqBO0-EwI-36" value="i" style="shape=parallelogram;perimeter=parallelogramPerimeter;whiteSpace=wrap;html=1;fixedSize=1;" vertex="1" parent="1">
          <mxGeometry x="580" y="810" width="120" height="40" as="geometry" />
        </mxCell>
        <mxCell id="egN8UamiefCpqBO0-EwI-48" style="edgeStyle=orthogonalEdgeStyle;rounded=0;orthogonalLoop=1;jettySize=auto;html=1;exitX=0.5;exitY=1;exitDx=0;exitDy=0;entryX=0;entryY=0.5;entryDx=0;entryDy=0;" edge="1" parent="1" source="egN8UamiefCpqBO0-EwI-40" target="egN8UamiefCpqBO0-EwI-32">
          <mxGeometry relative="1" as="geometry">
            <mxPoint x="820" y="770" as="targetPoint" />
          </mxGeometry>
        </mxCell>
        <mxCell id="egN8UamiefCpqBO0-EwI-40" value="i = i + 1" style="rounded=0;whiteSpace=wrap;html=1;" vertex="1" parent="1">
          <mxGeometry x="880" y="880" width="120" height="30" as="geometry" />
        </mxCell>
        <mxCell id="egN8UamiefCpqBO0-EwI-41" style="edgeStyle=orthogonalEdgeStyle;rounded=0;orthogonalLoop=1;jettySize=auto;html=1;exitX=0.5;exitY=1;exitDx=0;exitDy=0;entryX=0.5;entryY=0;entryDx=0;entryDy=0;" edge="1" parent="1" source="egN8UamiefCpqBO0-EwI-42" target="egN8UamiefCpqBO0-EwI-40">
          <mxGeometry relative="1" as="geometry" />
        </mxCell>
        <mxCell id="egN8UamiefCpqBO0-EwI-42" value="i" style="shape=parallelogram;perimeter=parallelogramPerimeter;whiteSpace=wrap;html=1;fixedSize=1;" vertex="1" parent="1">
          <mxGeometry x="880" y="810" width="120" height="40" as="geometry" />
        </mxCell>
        <mxCell id="egN8UamiefCpqBO0-EwI-49" value="Конец" style="ellipse;whiteSpace=wrap;html=1;" vertex="1" parent="1">
          <mxGeometry x="580" y="1010" width="120" height="50" as="geometry" />
        </mxCell>
        <mxCell id="egN8UamiefCpqBO0-EwI-50" value="Конец" style="ellipse;whiteSpace=wrap;html=1;" vertex="1" parent="1">
          <mxGeometry x="880" y="1010" width="120" height="50" as="geometry" />
        </mxCell>
      </root>
    </mxGraphModel>
  </diagram>
</mxfile>
